  0
SECTION
  2
HEADER
  9
$ANGBASE
  50
0.0
  9
$ANGDIR
  70
1
  9
$MEASUREMENT
  70
1
  0
ENDSEC
  0
SECTION
  2
TABLES
  0
TABLE
  2
LTYPE
  70
4
  0
LTYPE
  5
40F
  2
CONTINUOUS
  70
0
  3
Solid line
  72
65
  73
0
  40
0.0
  0
LTYPE
  5
410
  2
DASHDOT
 70
0
  3
Dash Dot ____ _ ____ _
 72
65
 73
4
 40
2.0
 49
1.25
 49
-0.25
 49
0.25
 49
-0.25
  0
LTYPE
  5
411
  2
DASHED
 70
0
  3
Dashed __ __ __ __ __
 72
65
 73
2
 40
0.75
 49
0.5
 49
-0.25
  0
LTYPE
  5
43B
  2
DOTTED
 70
0
  3
Dotted .  .  .  .
 72
65
 73
2
 40
0.2
 49
0.0
 49
-0.2
  0
ENDTAB
  0
TABLE
  2
STYLE
  70
4
  0
STYLE
  2
KICAD
  70
0
  40
0
  41
1
  42
1
  50
0
  71
0
  3
isocp.shx
  0
STYLE
  2
KICADB
  70
0
  40
0
  41
1
  42
1
  50
0
  71
0
  3
isocp.shx
  0
STYLE
  2
KICADI
  70
0
  40
0
  41
1
  42
1
  50
15
  71
0
  3
isocp.shx
  0
STYLE
  2
KICADBI
  70
0
  40
0
  41
1
  42
1
  50
15
  71
0
  3
isocp.shx
  0
ENDTAB
  0
TABLE
  2
LAYER
  70
1
  0
LAYER
  2
BLACK
  70
0
  62
7
  6
CONTINUOUS
  0
ENDTAB
  0
ENDSEC
  0
SECTION
  2
ENTITIES
0
LINE
8
BLACK
6
CONTINUOUS
10
108.75
20
-57.4124999999999943
11
81.75
21
-57.4124999999999943
0
ARC
8
BLACK
10
150.4000000000000057
20
-155.1624999999999943
40
2.
50
-90.00000000
51
-0.00000000
0
LINE
8
BLACK
6
CONTINUOUS
10
153.4000000000000057
20
-145.3624999999999829
11
152.4000000000000057
21
-145.3624999999999829
0
LINE
8
BLACK
6
CONTINUOUS
10
153.4000000000000057
20
-67.4624999999999915
11
153.4000000000000057
21
-73.7124999999999915
0
ARC
8
BLACK
10
49.6374999999999957
20
-67.4624999999999915
40
1.75
50
0.00000000
51
180.00000000
0
LINE
8
BLACK
6
CONTINUOUS
10
83.4500000000000028
20
-157.1624999999999943
11
83.4500000000000028
21
-158.1624999999999943
0
ARC
8
BLACK
10
54.3874999999999957
20
-155.1624999999999943
40
2.
50
-180.00000000
51
-90.00000000
0
ARC
8
BLACK
10
49.6374999999999957
20
-151.6124999999999829
40
1.75
50
-180.00000000
51
-0.00000000
0
LINE
8
BLACK
6
CONTINUOUS
10
52.3874999999999957
20
-155.1624999999999943
11
52.3874999999999957
21
-145.3624999999999829
0
LINE
8
BLACK
6
CONTINUOUS
10
102.5
20
-60.9124999999999943
11
108.75
21
-60.9124999999999943
0
LINE
8
BLACK
6
CONTINUOUS
10
152.4000000000000057
20
-130.8624999999999829
11
153.4000000000000057
21
-130.8624999999999829
0
ARC
8
BLACK
10
119.8499999999999943
20
-59.1624999999999943
40
1.75
50
-270.00000000
51
-90.00000000
0
LINE
8
BLACK
6
CONTINUOUS
10
102.5
20
-60.9124999999999943
11
102.5
21
-61.9124999999999943
0
LINE
8
BLACK
6
CONTINUOUS
10
51.3874999999999957
20
-130.8624999999999829
11
51.3874999999999957
21
-124.6124999999999972
0
ARC
8
BLACK
10
146.8499999999999943
20
-59.1624999999999943
40
1.75
50
-90.00000000
51
90.00000000
0
LINE
8
BLACK
6
CONTINUOUS
10
153.4000000000000057
20
-145.3624999999999829
11
153.4000000000000057
21
-151.6124999999999829
0
LINE
8
BLACK
6
CONTINUOUS
10
88.
20
-61.9124999999999943
11
54.3874999999999957
21
-61.9124999999999943
0
LINE
8
BLACK
6
CONTINUOUS
10
140.5999999999999943
20
-157.1624999999999943
11
150.4000000000000057
21
-157.1624999999999943
0
LINE
8
BLACK
6
CONTINUOUS
10
62.6999999999999957
20
-161.6624999999999943
11
89.7000000000000028
21
-161.6624999999999943
0
ARC
8
BLACK
10
155.1500000000000057
20
-67.4624999999999915
40
1.75
50
0.00000000
51
180.00000000
0
LINE
8
BLACK
6
CONTINUOUS
10
54.3874999999999957
20
-157.1624999999999943
11
68.9500000000000028
21
-157.1624999999999943
0
LINE
8
BLACK
6
CONTINUOUS
10
126.0999999999999943
20
-61.9124999999999943
11
126.0999999999999943
21
-60.9124999999999943
0
LINE
8
BLACK
6
CONTINUOUS
10
153.4000000000000057
20
-88.2124999999999915
11
152.4000000000000057
21
-88.2124999999999915
0
ARC
8
BLACK
10
49.6374999999999957
20
-94.4624999999999915
40
1.75
50
-180.00000000
51
-0.00000000
0
LINE
8
BLACK
6
CONTINUOUS
10
81.75
20
-60.9124999999999943
11
88.
21
-60.9124999999999943
0
LINE
8
BLACK
6
CONTINUOUS
10
51.3874999999999957
20
-94.4624999999999915
11
51.3874999999999957
21
-88.2124999999999915
0
LINE
8
BLACK
6
CONTINUOUS
10
68.9500000000000028
20
-158.1624999999999943
11
68.9500000000000028
21
-157.1624999999999943
0
LINE
8
BLACK
6
CONTINUOUS
10
52.3874999999999957
20
-145.3624999999999829
11
51.3874999999999957
21
-145.3624999999999829
0
LINE
8
BLACK
6
CONTINUOUS
10
51.3874999999999957
20
-130.8624999999999829
11
52.3874999999999957
21
-130.8624999999999829
0
LINE
8
BLACK
6
CONTINUOUS
10
51.3874999999999957
20
-73.7124999999999915
11
52.3874999999999957
21
-73.7124999999999915
0
LINE
8
BLACK
6
CONTINUOUS
10
146.8499999999999943
20
-158.1624999999999943
11
140.5999999999999943
21
-158.1624999999999943
0
LINE
8
BLACK
6
CONTINUOUS
10
152.4000000000000057
20
-155.1624999999999943
11
152.4000000000000057
21
-145.3624999999999829
0
LINE
8
BLACK
6
CONTINUOUS
10
51.3874999999999957
20
-151.6124999999999829
11
51.3874999999999957
21
-145.3624999999999829
0
LINE
8
BLACK
6
CONTINUOUS
10
83.4500000000000028
20
-157.1624999999999943
11
126.0999999999999943
21
-157.1624999999999943
0
ARC
8
BLACK
10
119.8499999999999943
20
-159.9124999999999943
40
1.75
50
-270.00000000
51
-90.00000000
0
LINE
8
BLACK
6
CONTINUOUS
10
140.5999999999999943
20
-60.9124999999999943
11
140.5999999999999943
21
-61.9124999999999943
0
LINE
8
BLACK
6
CONTINUOUS
10
119.8499999999999943
20
-60.9124999999999943
11
126.0999999999999943
21
-60.9124999999999943
0
ARC
8
BLACK
10
155.1500000000000057
20
-94.4624999999999915
40
1.75
50
-180.00000000
51
-0.00000000
0
LINE
8
BLACK
6
CONTINUOUS
10
153.4000000000000057
20
-88.2124999999999915
11
153.4000000000000057
21
-94.4624999999999915
0
LINE
8
BLACK
6
CONTINUOUS
10
89.7000000000000028
20
-158.1624999999999943
11
83.4500000000000028
21
-158.1624999999999943
0
ARC
8
BLACK
10
62.6999999999999957
20
-159.9124999999999943
40
1.75
50
-270.00000000
51
-90.00000000
0
LINE
8
BLACK
6
CONTINUOUS
10
153.4000000000000057
20
-124.6124999999999972
11
153.4000000000000057
21
-130.8624999999999829
0
ARC
8
BLACK
10
49.6374999999999957
20
-124.6124999999999972
40
1.75
50
0.00000000
51
180.00000000
0
LINE
8
BLACK
6
CONTINUOUS
10
52.3874999999999957
20
-130.8624999999999829
11
52.3874999999999957
21
-88.2124999999999915
0
LINE
8
BLACK
6
CONTINUOUS
10
51.3874999999999957
20
-73.7124999999999915
11
51.3874999999999957
21
-67.4624999999999915
0
LINE
8
BLACK
6
CONTINUOUS
10
126.0999999999999943
20
-158.1624999999999943
11
119.8499999999999943
21
-158.1624999999999943
0
LINE
8
BLACK
6
CONTINUOUS
10
140.5999999999999943
20
-61.9124999999999943
11
150.4000000000000057
21
-61.9124999999999943
0
ARC
8
BLACK
10
155.1500000000000057
20
-151.6124999999999829
40
1.75
50
-180.00000000
51
-0.00000000
0
LINE
8
BLACK
6
CONTINUOUS
10
52.3874999999999957
20
-88.2124999999999915
11
51.3874999999999957
21
-88.2124999999999915
0
ARC
8
BLACK
10
89.7000000000000028
20
-159.9124999999999943
40
1.75
50
-90.00000000
51
90.00000000
0
ARC
8
BLACK
10
150.4000000000000057
20
-63.9124999999999943
40
2.
50
0.00000000
51
90.00000000
0
LINE
8
BLACK
6
CONTINUOUS
10
156.9000000000000057
20
-94.4624999999999915
11
156.9000000000000057
21
-67.4624999999999915
0
LINE
8
BLACK
6
CONTINUOUS
10
140.5999999999999943
20
-157.1624999999999943
11
140.5999999999999943
21
-158.1624999999999943
0
ARC
8
BLACK
10
108.75
20
-59.1624999999999943
40
1.75
50
-90.00000000
51
90.00000000
0
ARC
8
BLACK
10
81.75
20
-59.1624999999999943
40
1.75
50
-270.00000000
51
-90.00000000
0
LINE
8
BLACK
6
CONTINUOUS
10
119.8499999999999943
20
-161.6624999999999943
11
146.8499999999999943
21
-161.6624999999999943
0
LINE
8
BLACK
6
CONTINUOUS
10
152.4000000000000057
20
-73.7124999999999915
11
152.4000000000000057
21
-63.9124999999999943
0
LINE
8
BLACK
6
CONTINUOUS
10
102.5
20
-61.9124999999999943
11
126.0999999999999943
21
-61.9124999999999943
0
LINE
8
BLACK
6
CONTINUOUS
10
47.8874999999999957
20
-124.6124999999999972
11
47.8874999999999957
21
-151.6124999999999829
0
LINE
8
BLACK
6
CONTINUOUS
10
47.8874999999999957
20
-67.4624999999999915
11
47.8874999999999957
21
-94.4624999999999915
0
LINE
8
BLACK
6
CONTINUOUS
10
140.5999999999999943
20
-60.9124999999999943
11
146.8499999999999943
21
-60.9124999999999943
0
LINE
8
BLACK
6
CONTINUOUS
10
88.
20
-61.9124999999999943
11
88.
21
-60.9124999999999943
0
ARC
8
BLACK
10
146.8499999999999943
20
-159.9124999999999943
40
1.75
50
-90.00000000
51
90.00000000
0
LINE
8
BLACK
6
CONTINUOUS
10
152.4000000000000057
20
-73.7124999999999915
11
153.4000000000000057
21
-73.7124999999999915
0
LINE
8
BLACK
6
CONTINUOUS
10
146.8499999999999943
20
-57.4124999999999943
11
119.8499999999999943
21
-57.4124999999999943
0
ARC
8
BLACK
10
54.3874999999999957
20
-63.9124999999999943
40
2.
50
90.00000000
51
180.00000000
0
LINE
8
BLACK
6
CONTINUOUS
10
156.9000000000000057
20
-151.6124999999999829
11
156.9000000000000057
21
-124.6124999999999972
0
LINE
8
BLACK
6
CONTINUOUS
10
52.3874999999999957
20
-73.7124999999999915
11
52.3874999999999957
21
-63.9124999999999943
0
LINE
8
BLACK
6
CONTINUOUS
10
152.4000000000000057
20
-130.8624999999999829
11
152.4000000000000057
21
-88.2124999999999915
0
ARC
8
BLACK
10
155.1500000000000057
20
-124.6124999999999972
40
1.75
50
0.00000000
51
180.00000000
0
LINE
8
BLACK
6
CONTINUOUS
10
126.0999999999999943
20
-158.1624999999999943
11
126.0999999999999943
21
-157.1624999999999943
0
LINE
8
BLACK
6
CONTINUOUS
10
68.9500000000000028
20
-158.1624999999999943
11
62.6999999999999957
21
-158.1624999999999943
0
LINE
8
BLACK
6
CONTINUOUS
10
78.7249999999999943
20
-83.4874999999999972
11
78.7249999999999943
21
-97.4874999999999972
0
LINE
8
BLACK
6
CONTINUOUS
10
78.7249999999999943
20
-97.4874999999999972
11
92.7249999999999943
21
-97.4874999999999972
0
LINE
8
BLACK
6
CONTINUOUS
10
92.7249999999999943
20
-83.4874999999999972
11
78.7249999999999943
21
-83.4874999999999972
0
LINE
8
BLACK
6
CONTINUOUS
10
92.7249999999999943
20
-97.4874999999999972
11
92.7249999999999943
21
-83.4874999999999972
0
LINE
8
BLACK
6
CONTINUOUS
10
78.7249999999999943
20
-64.4375
11
78.7249999999999943
21
-78.4375
0
LINE
8
BLACK
6
CONTINUOUS
10
78.7249999999999943
20
-78.4375
11
92.7249999999999943
21
-78.4375
0
LINE
8
BLACK
6
CONTINUOUS
10
92.7249999999999943
20
-64.4375
11
78.7249999999999943
21
-64.4375
0
LINE
8
BLACK
6
CONTINUOUS
10
92.7249999999999943
20
-78.4375
11
92.7249999999999943
21
-64.4375
0
LINE
8
BLACK
6
CONTINUOUS
10
78.7249999999999943
20
-102.5374999999999943
11
78.7249999999999943
21
-116.5374999999999943
0
LINE
8
BLACK
6
CONTINUOUS
10
78.7249999999999943
20
-116.5374999999999943
11
92.7249999999999943
21
-116.5374999999999943
0
LINE
8
BLACK
6
CONTINUOUS
10
92.7249999999999943
20
-102.5374999999999943
11
78.7249999999999943
21
-102.5374999999999943
0
LINE
8
BLACK
6
CONTINUOUS
10
92.7249999999999943
20
-116.5374999999999943
11
92.7249999999999943
21
-102.5374999999999943
0
LINE
8
BLACK
6
CONTINUOUS
10
97.7749999999999915
20
-140.6374999999999886
11
97.7749999999999915
21
-154.6374999999999886
0
LINE
8
BLACK
6
CONTINUOUS
10
97.7749999999999915
20
-154.6374999999999886
11
111.7749999999999915
21
-154.6374999999999886
0
LINE
8
BLACK
6
CONTINUOUS
10
111.7749999999999915
20
-140.6374999999999886
11
97.7749999999999915
21
-140.6374999999999886
0
LINE
8
BLACK
6
CONTINUOUS
10
111.7749999999999915
20
-154.6374999999999886
11
111.7749999999999915
21
-140.6374999999999886
0
LINE
8
BLACK
6
CONTINUOUS
10
97.7749999999999915
20
-64.4375
11
97.7749999999999915
21
-78.4375
0
LINE
8
BLACK
6
CONTINUOUS
10
97.7749999999999915
20
-78.4375
11
111.7749999999999915
21
-78.4375
0
LINE
8
BLACK
6
CONTINUOUS
10
111.7749999999999915
20
-64.4375
11
97.7749999999999915
21
-64.4375
0
LINE
8
BLACK
6
CONTINUOUS
10
111.7749999999999915
20
-78.4375
11
111.7749999999999915
21
-64.4375
0
LINE
8
BLACK
6
CONTINUOUS
10
57.2937499999999957
20
-116.8249999999999886
11
57.2937499999999957
21
-130.8249999999999886
0
LINE
8
BLACK
6
CONTINUOUS
10
57.2937499999999957
20
-130.8249999999999886
11
71.2937500000000028
21
-130.8249999999999886
0
LINE
8
BLACK
6
CONTINUOUS
10
71.2937500000000028
20
-116.8249999999999886
11
57.2937499999999957
21
-116.8249999999999886
0
LINE
8
BLACK
6
CONTINUOUS
10
71.2937500000000028
20
-130.8249999999999886
11
71.2937500000000028
21
-116.8249999999999886
0
LINE
8
BLACK
6
CONTINUOUS
10
78.7249999999999943
20
-140.6374999999999886
11
78.7249999999999943
21
-154.6374999999999886
0
LINE
8
BLACK
6
CONTINUOUS
10
78.7249999999999943
20
-154.6374999999999886
11
92.7249999999999943
21
-154.6374999999999886
0
LINE
8
BLACK
6
CONTINUOUS
10
92.7249999999999943
20
-140.6374999999999886
11
78.7249999999999943
21
-140.6374999999999886
0
LINE
8
BLACK
6
CONTINUOUS
10
92.7249999999999943
20
-154.6374999999999886
11
92.7249999999999943
21
-140.6374999999999886
0
LINE
8
BLACK
6
CONTINUOUS
10
57.2937499999999957
20
-95.3937499999999972
11
57.2937499999999957
21
-109.3937499999999972
0
LINE
8
BLACK
6
CONTINUOUS
10
57.2937499999999957
20
-109.3937499999999972
11
71.2937500000000028
21
-109.3937499999999972
0
LINE
8
BLACK
6
CONTINUOUS
10
71.2937500000000028
20
-95.3937499999999972
11
57.2937499999999957
21
-95.3937499999999972
0
LINE
8
BLACK
6
CONTINUOUS
10
71.2937500000000028
20
-109.3937499999999972
11
71.2937500000000028
21
-95.3937499999999972
0
LINE
8
BLACK
6
CONTINUOUS
10
116.8249999999999886
20
-121.5874999999999915
11
116.8249999999999886
21
-135.5875000000000057
0
LINE
8
BLACK
6
CONTINUOUS
10
116.8249999999999886
20
-135.5875000000000057
11
130.8249999999999886
21
-135.5875000000000057
0
LINE
8
BLACK
6
CONTINUOUS
10
130.8249999999999886
20
-121.5874999999999915
11
116.8249999999999886
21
-121.5874999999999915
0
LINE
8
BLACK
6
CONTINUOUS
10
130.8249999999999886
20
-135.5875000000000057
11
130.8249999999999886
21
-121.5874999999999915
0
LINE
8
BLACK
6
CONTINUOUS
10
116.8249999999999886
20
-83.4874999999999972
11
116.8249999999999886
21
-97.4874999999999972
0
LINE
8
BLACK
6
CONTINUOUS
10
116.8249999999999886
20
-97.4874999999999972
11
130.8249999999999886
21
-97.4874999999999972
0
LINE
8
BLACK
6
CONTINUOUS
10
130.8249999999999886
20
-83.4874999999999972
11
116.8249999999999886
21
-83.4874999999999972
0
LINE
8
BLACK
6
CONTINUOUS
10
130.8249999999999886
20
-97.4874999999999972
11
130.8249999999999886
21
-83.4874999999999972
0
LINE
8
BLACK
6
CONTINUOUS
10
134.0749999999999886
20
-122.7124999999999915
11
148.875
21
-122.7124999999999915
0
LINE
8
BLACK
6
CONTINUOUS
10
134.0749999999999886
20
-129.7125000000000057
11
134.0749999999999886
21
-122.7124999999999915
0
LINE
8
BLACK
6
CONTINUOUS
10
134.0749999999999886
20
-146.5124999999999886
11
134.0749999999999886
21
-153.5124999999999886
0
LINE
8
BLACK
6
CONTINUOUS
10
134.0749999999999886
20
-153.5124999999999886
11
148.875
21
-153.5124999999999886
0
LINE
8
BLACK
6
CONTINUOUS
10
135.875
20
-131.1124999999999829
11
135.875
21
-145.1124999999999829
0
LINE
8
BLACK
6
CONTINUOUS
10
135.875
20
-145.1124999999999829
11
149.875
21
-145.1124999999999829
0
LINE
8
BLACK
6
CONTINUOUS
10
148.875
20
-122.7124999999999915
11
148.875
21
-129.7125000000000057
0
LINE
8
BLACK
6
CONTINUOUS
10
148.875
20
-129.7125000000000057
11
134.0749999999999886
21
-129.7125000000000057
0
LINE
8
BLACK
6
CONTINUOUS
10
148.875
20
-146.5124999999999886
11
134.0749999999999886
21
-146.5124999999999886
0
LINE
8
BLACK
6
CONTINUOUS
10
148.875
20
-153.5124999999999886
11
148.875
21
-146.5124999999999886
0
LINE
8
BLACK
6
CONTINUOUS
10
149.875
20
-131.1124999999999829
11
135.875
21
-131.1124999999999829
0
LINE
8
BLACK
6
CONTINUOUS
10
149.875
20
-145.1124999999999829
11
149.875
21
-131.1124999999999829
0
LINE
8
BLACK
6
CONTINUOUS
10
135.875
20
-83.4874999999999972
11
135.875
21
-97.4874999999999972
0
LINE
8
BLACK
6
CONTINUOUS
10
135.875
20
-97.4874999999999972
11
149.875
21
-97.4874999999999972
0
LINE
8
BLACK
6
CONTINUOUS
10
149.875
20
-83.4874999999999972
11
135.875
21
-83.4874999999999972
0
LINE
8
BLACK
6
CONTINUOUS
10
149.875
20
-97.4874999999999972
11
149.875
21
-83.4874999999999972
0
LINE
8
BLACK
6
CONTINUOUS
10
135.875
20
-102.5374999999999943
11
135.875
21
-116.5374999999999943
0
LINE
8
BLACK
6
CONTINUOUS
10
135.875
20
-116.5374999999999943
11
149.875
21
-116.5374999999999943
0
LINE
8
BLACK
6
CONTINUOUS
10
149.875
20
-102.5374999999999943
11
135.875
21
-102.5374999999999943
0
LINE
8
BLACK
6
CONTINUOUS
10
149.875
20
-116.5374999999999943
11
149.875
21
-102.5374999999999943
0
LINE
8
BLACK
6
CONTINUOUS
10
57.2937499999999957
20
-138.2562499999999943
11
57.2937499999999957
21
-152.2562499999999943
0
LINE
8
BLACK
6
CONTINUOUS
10
57.2937499999999957
20
-152.2562499999999943
11
71.2937500000000028
21
-152.2562499999999943
0
LINE
8
BLACK
6
CONTINUOUS
10
71.2937500000000028
20
-138.2562499999999943
11
57.2937499999999957
21
-138.2562499999999943
0
LINE
8
BLACK
6
CONTINUOUS
10
71.2937500000000028
20
-152.2562499999999943
11
71.2937500000000028
21
-138.2562499999999943
0
LINE
8
BLACK
6
CONTINUOUS
10
97.7749999999999915
20
-83.4874999999999972
11
97.7749999999999915
21
-97.4874999999999972
0
LINE
8
BLACK
6
CONTINUOUS
10
97.7749999999999915
20
-97.4874999999999972
11
111.7749999999999915
21
-97.4874999999999972
0
LINE
8
BLACK
6
CONTINUOUS
10
111.7749999999999915
20
-83.4874999999999972
11
97.7749999999999915
21
-83.4874999999999972
0
LINE
8
BLACK
6
CONTINUOUS
10
111.7749999999999915
20
-97.4874999999999972
11
111.7749999999999915
21
-83.4874999999999972
0
LINE
8
BLACK
6
CONTINUOUS
10
97.7749999999999915
20
-121.5874999999999915
11
97.7749999999999915
21
-135.5875000000000057
0
LINE
8
BLACK
6
CONTINUOUS
10
97.7749999999999915
20
-135.5875000000000057
11
111.7749999999999915
21
-135.5875000000000057
0
LINE
8
BLACK
6
CONTINUOUS
10
111.7749999999999915
20
-121.5874999999999915
11
97.7749999999999915
21
-121.5874999999999915
0
LINE
8
BLACK
6
CONTINUOUS
10
111.7749999999999915
20
-135.5875000000000057
11
111.7749999999999915
21
-121.5874999999999915
0
LINE
8
BLACK
6
CONTINUOUS
10
97.7749999999999915
20
-102.5374999999999943
11
97.7749999999999915
21
-116.5374999999999943
0
LINE
8
BLACK
6
CONTINUOUS
10
97.7749999999999915
20
-116.5374999999999943
11
111.7749999999999915
21
-116.5374999999999943
0
LINE
8
BLACK
6
CONTINUOUS
10
111.7749999999999915
20
-102.5374999999999943
11
97.7749999999999915
21
-102.5374999999999943
0
LINE
8
BLACK
6
CONTINUOUS
10
111.7749999999999915
20
-116.5374999999999943
11
111.7749999999999915
21
-102.5374999999999943
0
LINE
8
BLACK
6
CONTINUOUS
10
135.875
20
-64.4375
11
135.875
21
-78.4375
0
LINE
8
BLACK
6
CONTINUOUS
10
135.875
20
-78.4375
11
149.875
21
-78.4375
0
LINE
8
BLACK
6
CONTINUOUS
10
149.875
20
-64.4375
11
135.875
21
-64.4375
0
LINE
8
BLACK
6
CONTINUOUS
10
149.875
20
-78.4375
11
149.875
21
-64.4375
0
LINE
8
BLACK
6
CONTINUOUS
10
78.7249999999999943
20
-121.5874999999999915
11
78.7249999999999943
21
-135.5875000000000057
0
LINE
8
BLACK
6
CONTINUOUS
10
78.7249999999999943
20
-135.5875000000000057
11
92.7249999999999943
21
-135.5875000000000057
0
LINE
8
BLACK
6
CONTINUOUS
10
92.7249999999999943
20
-121.5874999999999915
11
78.7249999999999943
21
-121.5874999999999915
0
LINE
8
BLACK
6
CONTINUOUS
10
92.7249999999999943
20
-135.5875000000000057
11
92.7249999999999943
21
-121.5874999999999915
0
LINE
8
BLACK
6
CONTINUOUS
10
116.8249999999999886
20
-102.5374999999999943
11
116.8249999999999886
21
-116.5374999999999943
0
LINE
8
BLACK
6
CONTINUOUS
10
116.8249999999999886
20
-116.5374999999999943
11
130.8249999999999886
21
-116.5374999999999943
0
LINE
8
BLACK
6
CONTINUOUS
10
130.8249999999999886
20
-102.5374999999999943
11
116.8249999999999886
21
-102.5374999999999943
0
LINE
8
BLACK
6
CONTINUOUS
10
130.8249999999999886
20
-116.5374999999999943
11
130.8249999999999886
21
-102.5374999999999943
0
LINE
8
BLACK
6
CONTINUOUS
10
116.8249999999999886
20
-140.6374999999999886
11
116.8249999999999886
21
-154.6374999999999886
0
LINE
8
BLACK
6
CONTINUOUS
10
116.8249999999999886
20
-154.6374999999999886
11
130.8249999999999886
21
-154.6374999999999886
0
LINE
8
BLACK
6
CONTINUOUS
10
130.8249999999999886
20
-140.6374999999999886
11
116.8249999999999886
21
-140.6374999999999886
0
LINE
8
BLACK
6
CONTINUOUS
10
130.8249999999999886
20
-154.6374999999999886
11
130.8249999999999886
21
-140.6374999999999886
0
LINE
8
BLACK
6
CONTINUOUS
10
116.8249999999999886
20
-64.4375
11
116.8249999999999886
21
-78.4375
0
LINE
8
BLACK
6
CONTINUOUS
10
116.8249999999999886
20
-78.4375
11
130.8249999999999886
21
-78.4375
0
LINE
8
BLACK
6
CONTINUOUS
10
130.8249999999999886
20
-64.4375
11
116.8249999999999886
21
-64.4375
0
LINE
8
BLACK
6
CONTINUOUS
10
130.8249999999999886
20
-78.4375
11
130.8249999999999886
21
-64.4375
  0
ENDSEC
  0
EOF
